<svg width="35" height="16" viewBox="0 0 35 16" fill="none" xmlns="http://www.w3.org/2000/svg">
<path d="M32.8709 15.1626C32.4699 15.1633 32.0792 15.0337 31.7563 14.7929L17.6511 4.26305L3.54584 14.7929C3.34781 14.941 3.1229 15.0482 2.88394 15.1084C2.64497 15.1685 2.39664 15.1805 2.15312 15.1435C1.9096 15.1066 1.67566 15.0214 1.46465 14.893C1.25365 14.7645 1.06971 14.5953 0.923347 14.3949C0.776981 14.1945 0.671052 13.9669 0.611608 13.7251C0.552165 13.4832 0.54037 13.2319 0.576898 12.9855C0.65067 12.4878 0.916792 12.0402 1.31672 11.7411L16.5365 0.367657C16.8591 0.126026 17.2498 -0.00439453 17.6511 -0.00439453C18.0524 -0.00439453 18.4431 0.126026 18.7657 0.367657L33.9855 11.7411C34.3033 11.9781 34.5389 12.3106 34.6588 12.6912C34.7788 13.0718 34.7768 13.481 34.6532 13.8604C34.5296 14.2398 34.2907 14.57 33.9706 14.8039C33.6506 15.0377 33.2657 15.1633 32.8709 15.1626Z" fill="white"/>
</svg>
